<svg xmlns="http://www.w3.org/2000/svg" xmlns:xlink="http://www.w3.org/1999/xlink" width="218" height="57" viewBox="0 0 218 57"><defs><style>.a{clip-path:url(#b);}.b{fill:#005c4c;}.c{fill:#61a79b;font-size:20px;font-family:SegoeUI-Semibold, Segoe UI;font-weight:600;}.d{fill:#c3e4e3;font-size:30px;font-family:SegoeUI, Segoe UI;}</style><clipPath id="b"><rect width="218" height="57"/></clipPath></defs><g id="a" class="a"><g transform="translate(-0.629 -0.534)"><path class="b" d="M217.872,57.534H21a21,21,0,0,1-21-21V21A21,21,0,0,1,21,0H182.788a21,21,0,0,1,21,21V36.534c0,.592-.025,1.184-.073,1.762l14.89,17.818a3.569,3.569,0,0,1,.024.419,1,1,0,0,1-.23.6,1.011,1.011,0,0,1-.527.4h0Z" transform="translate(218.63 57.534) rotate(180)"/><text class="c" transform="translate(201.232 49.533)"><tspan x="-30.176" y="0">PM</tspan></text><text class="d" transform="translate(34.372 33.033)"><tspan x="0" y="0">pong</tspan></text></g></g></svg>