<svg xmlns="http://www.w3.org/2000/svg" xmlns:xlink="http://www.w3.org/1999/xlink" width="1263.28" height="1677.92" viewBox="0 0 1263.28 1677.92"><defs><style>.a{clip-path:url(#b);}.b{opacity:0.8;}.c{fill:#090a0f;}.d,.e,.m{fill:none;stroke-linejoin:round;}.d{stroke:#a3bbb7;}.d,.e{stroke-linecap:round;stroke-width:10px;}.e{stroke:#6b9890;}.f{fill:#121b22;}.g{fill:#1f2c34;}.h{fill:#fabea6;}.i{fill:#f3ab93;}.j{fill:#fdd9c9;}.k{fill:#f3ab92;}.l,.n{fill:#e5eaee;}.l{font-size:40px;font-family:SegoeUI-Semibold, Segoe UI;font-weight:600;}.m{stroke:#bac0c5;stroke-width:5px;}.n{font-size:30px;font-family:SegoeUI-Light, Segoe UI;font-weight:300;}</style><clipPath id="b"><rect width="1263.28" height="1677.92"/></clipPath></defs><g id="a" class="a"><g transform="translate(-13697.995 -3029)"><g class="b" transform="translate(518 855)"><path class="c" d="M585,931H0V0H585V931ZM93,239a17.019,17.019,0,0,0-17,17V676a17.019,17.019,0,0,0,17,17H492a17.019,17.019,0,0,0,17-17V256a17.019,17.019,0,0,0-17-17Z" transform="translate(13201 2525)"/><path class="d" d="M13022.232,3549.482v-91.8c-1.373-6.9-8.157-8.179-8.157-8.179h-91.018" transform="translate(683 -681)"/><path class="e" d="M13022.232,3549.482v-91.8c-1.373-6.9-8.157-8.179-8.157-8.179h-91.018" transform="translate(9832.15 15790.74) rotate(-90)"/><path class="e" d="M13022.232,3549.482v-91.8c-1.373-6.9-8.157-8.179-8.157-8.179h-91.018" transform="translate(26303.891 6662.59) rotate(180)"/><path class="e" d="M13022.232,3549.482v-91.8c-1.373-6.9-8.157-8.179-8.157-8.179h-91.018" transform="translate(17155.539 -9809.15) rotate(90)"/></g><rect class="f" width="574" height="180" transform="translate(13719 3200)"/><path class="g" d="M39.664,0h494.6c21.906,0,39.664,15.249,39.664,34.059V127.5H0V34.059C0,15.249,17.758,0,39.664,0Z" transform="translate(13719.238 3079.962)"/><path class="h" d="M14362.755,3442.673c34.633.715,60.6,127.865,60.6,127.865s142.06,254.165,192.486,348.965a81.709,81.709,0,0,1,6.062,14.245,96.781,96.781,0,0,1,3.159,15.991v298.256c.281.66,1.351,23.727,9.336,46.841s22.6,45.616,22.6,45.616l304.269,366.467h-576.6c1.681-8.405-58.836-70.6-87.414-99.182-17.661-17.661-84.4-61.292-130.42-101.739-28.508-25.059-48.877-56.9-48.877-56.9l-52.687-78.393c198.362,8.405,242.628-73.452,242.628-73.452l-.591-540.321s64.806,26.264,63,23.548,11.184-77.1,11.184-77.1c-16.021-23.683-60.437-17.239-70.779-48.236s-23.533-81.084-23.533-81.084-5.831-20.381-4.528-38.937,9.737-35.288,9.737-35.288,7.076-20.915,18.324-35.205,19.353-20.075,26.669-21.956a52.749,52.749,0,0,1,14.068-1.232A92.166,92.166,0,0,1,14362.755,3442.673Z"/><path class="i" d="M542,1346H378.223l-9.32-15.471.019-2.054q.042-4.631.087-9.474H507a98.111,98.111,0,0,0,98-98V716.133l35,14.437V1248a97.542,97.542,0,0,1-16.737,54.792,98.285,98.285,0,0,1-43.117,35.506A97.382,97.382,0,0,1,542,1346Z" transform="translate(13696.377 3039.082)"/><path d="M516,1342H98a98.716,98.716,0,0,1-19.751-1.991,97.454,97.454,0,0,1-35.042-14.746A98.285,98.285,0,0,1,7.7,1282.146a97.507,97.507,0,0,1-5.71-18.4A98.719,98.719,0,0,1,0,1244V98A98.718,98.718,0,0,1,1.991,78.25,97.464,97.464,0,0,1,16.737,43.207,98.286,98.286,0,0,1,59.854,7.7a97.513,97.513,0,0,1,18.4-5.71A98.716,98.716,0,0,1,98,0H516a98.718,98.718,0,0,1,19.75,1.991,97.456,97.456,0,0,1,35.042,14.746A98.284,98.284,0,0,1,606.3,59.854a97.51,97.51,0,0,1,5.71,18.4A98.72,98.72,0,0,1,614,98V1244a98.721,98.721,0,0,1-1.991,19.75,97.466,97.466,0,0,1-14.746,35.042,98.293,98.293,0,0,1-43.117,35.506,97.516,97.516,0,0,1-18.4,5.71A98.718,98.718,0,0,1,516,1342ZM64.832,68a39.044,39.044,0,0,0-39,39V1242a39.044,39.044,0,0,0,39,39H551.156a39.044,39.044,0,0,0,39-39V107a39.044,39.044,0,0,0-39-39Z" transform="translate(13698 3029)"/><path class="h" d="M14362.755,3442.673c34.633.715,60.6,127.865,60.6,127.865s142.06,254.165,192.486,348.965a81.709,81.709,0,0,1,6.062,14.245,96.781,96.781,0,0,1,3.159,15.991v298.256c.281.66,1.351,23.727,9.336,46.841s22.6,45.616,22.6,45.616l304.269,366.467h-576.6c1.681-8.405-58.836-70.6-87.414-99.182-17.661-17.661-84.4-61.292-130.42-101.739-28.508-25.059-48.877-56.9-48.877-56.9l76.618-34.388c198.362,8.405,165.52,11.638,165.52,11.638l-9.835-619.08s-2.316-25.424-4.127-28.141c-.81-1.215,2.016,14.45,0-5.711-1.716-17.162-8.31-70.482-8.792-71.219-11.354-17.348-17.347-19.223-26.635-47.058-10.343-31-23.533-81.084-23.533-81.084s-5.831-20.381-4.528-38.937,9.737-35.288,9.737-35.288,7.076-20.915,18.324-35.205,19.353-20.075,26.669-21.956a52.749,52.749,0,0,1,14.068-1.232A92.166,92.166,0,0,1,14362.755,3442.673Z"/><path class="j" d="M14423.316,3570.392s-21.137-4.762-31.236-21.131-27.165-55.724-27.165-55.724-11.493-39.7,0-47.714c1.3-.9,2.177-1.907,3.99-1.662,1.448.182,3.893,1.838,6.379,4.127,3.554,3.27,8.7,9.986,12.381,16.228,9.4,15.96,16.885,37.8,16.885,37.8s14.157,41.344,16.247,57.016"/><path class="k" d="M17149.869,3495.543s-53.926-7.634-58.682-11.053l-3-4.977Z" transform="translate(-2753.663 218.249)"/><path class="i" d="M17482.664,4195.331s-106.828-94.166-133.385-135.671c-.488-.761-1.553-5.311-2.1-6.259,0,0,.08,4.6-.893,6.851-5.588,12.912-32.189,67.927-103.65,133.959-82.139,75.9-76.939,117.488-76.939,117.488s1.037,13.516-10.4,18.715-18.713,10.4-17.674,56.145c0,0,1.246,1.851,3.527,5.321,9.119,13.864,35.168,54.322,45.338,78.9h-50.428s-22.652-28.478-53.418-62.777c-30.512-34.017-74.141-69.079-105.918-91.478-66.365-44.244-118.785-103.594-131.262-138.945,0,0,147.639,108.13,180.91,107.09s141.4,14.556,186.109-125.806c0,0-1.994-14.4,43.594-36.789s80.371-9.6,91.568-251.131c0,0,14.916-115.724,16.188-173.427l-.525-18.645,10.625,19.224s1.055,2.5,1.328,3.424a3.973,3.973,0,0,1,.322,2.257c-.115,25.981-1.123,261.588.012,297.6,1.2,38.144,33.77,105.627,68.836,148.077,14.7,17.787,23.9,28.986,29.443,35.816C17481.117,4194.177,17482.664,4195.331,17482.664,4195.331Z" transform="translate(-2750 236.144)"/></g><text class="l" transform="translate(143 140)"><tspan x="0" y="0">Scan QR code</tspan></text><g transform="translate(57.5 93.5)"><path class="m" d="M49.59,30H12.5"/><path class="m" d="M30,47.5,12.5,30,30,12.5"/></g><text class="n" transform="translate(303 238)"><tspan x="-187.053" y="0">To use WhatsApp Web, go to </tspan><tspan x="-172.28" y="40">web.whatsapp.com on you </tspan><tspan x="-62.249" y="80">computer.</tspan></text></g></svg>