<svg xmlns="http://www.w3.org/2000/svg" xmlns:xlink="http://www.w3.org/1999/xlink" width="266" height="57" viewBox="0 0 266 57"><defs><style>.a{clip-path:url(#b);}.b{fill:#005c4c;}.c{fill:none;stroke:#54b8e1;stroke-linecap:round;stroke-linejoin:round;stroke-width:2.5px;}.d{fill:#61a79b;font-size:20px;font-family:SegoeUI-Semibold, Segoe UI;font-weight:600;}.e{fill:#c7ccd2;font-size:30px;font-family:SegoeUI, Segoe UI;}</style><clipPath id="b"><rect width="266" height="57"/></clipPath></defs><g id="a" class="a"><path class="b" d="M226.97,57H21A21,21,0,0,1,0,36V21A21,21,0,0,1,21,0H265.106a1.229,1.229,0,0,1,.643.4.883.883,0,0,1,.281.593,2.884,2.884,0,0,1-.029.415L247.882,19.06c.059.64.088,1.293.088,1.94V36a21,21,0,0,1-21,21Z" transform="translate(0 0)"/><g transform="translate(203.559 33.924)"><path class="c" d="M23.2,7.447,11.329,21.541,9.162,18.646" transform="translate(1.838 -7.447)"/><path class="c" d="M22.571,7.156,11.25,21.25,6.529,14.668" transform="translate(-6.529 -7.156)"/></g><text class="d" transform="translate(191.358 48.999)"><tspan x="-30.176" y="0">PM</tspan></text><text class="e" transform="translate(26.358 39.533)"><tspan x="0" y="0">!ping</tspan></text></g></svg>